[img]http://img651.imageshack.us/img651/7038/captian.jpg[/img]
[code]
General:

Complete name                    : Captain America The First Avenger 2011 CAM XVID AC3 - SCR0N.avi
Format                           : AVI
Format/Info                      : Audio Video Interleave
File size                        : 1.27 GiB
Duration                         : 1h 53mn
Overall bit rate                 : 1 600 Kbps


Video:

ID                               : 0
Format                           : MPEG-4 Visual
Format profile                   : Advanced Simple@L5
Format settings, BVOP            : Yes
Format settings, QPel            : No
Format settings, GMC             : No warppoints
Format settings, Matrix          : Default (H.263)
Muxing mode                      : Packed bitstream
Codec ID                         : XVID
Codec ID/Hint                    : XviD
Duration                         : 1h 53mn
Bit rate                         : 1 143 Kbps
Width                            : 720 pixels
Height                           : 336 pixels
Display aspect ratio             : 2.2:1
Frame rate                       : 29.970 fps
Color space                      : YUV
Chroma subsampling               : 4:2:0
Bit depth                        : 8 bits
Scan type                        : Progressive
Bits/(Pixel*Frame)               : 0.158
Stream size                      : 930 MiB (71%)

Audio 1:

ID                               : 1
Format                           : AC-3
Format/Info                      : Audio Coding 3
Mode extension                   : CM (complete main)
Codec ID                         : 2000
Duration                         : 1h 53mn
Bit rate mode                    : Constant
Bit rate                         : 448 Kbps
Channel(s)                       : 2 channels
Channel positions                : Front: L R
Sampling rate                    : 48.0 KHz
Bit depth                        : 16 bits
Stream size                      : 364 MiB (28%)
Alignment                        : Aligned on interleaves
Interleave, duration             : 64 ms (1.92 video frames)
Interleave, preload duration     : 192 ms

Cast:

Chris Evans as Captain America / Steve Rogers 
Hayley Atwell as Peggy Carter 
Sebastian Stan as James Buchanan &#x27;Bucky&#x27; Barnes 
Tommy Lee Jones as Colonel Chester Phillips 
Hugo Weaving as Johann Schmidt / Red Skull 
Dominic Cooper as Howard Stark 
Richard Armitage as Heinz Kruger 
Stanley Tucci as Dr. Abraham Erskine 
Samuel L. Jackson as Nick Fury 
Toby Jones as Dr. Arnim Zola 


SOURCE
Video : Captain.America.The.First.Avenger.2011.CAM
Audio : Captain.America.The.First.Avenger.2011.CAM.AVC-ERDNA
[/code]
Screens:
[img]http://img26.imageshack.us/img26/848/37136431568406197644.jpg[/img]
[img]http://img263.imageshack.us/img263/7205/48861292240612695271.jpg[/img]
[img]http://img51.imageshack.us/img51/5003/52099765211545384462.jpg/[/img]
[img]http://img193.imageshack.us/img193/9386/59259900233264197965.jpg/[/img]
[img]http://img89.imageshack.us/img89/9889/94530557254793152760.jpg[/img]